<svg xmlns="http://www.w3.org/2000/svg" width="1366" height="200" viewBox="0 0 1366 200"><defs><style>.a{fill:#cb00cb;}</style></defs><g transform="translate(0 0.04)"><g transform="translate(0 -0.04)"><path class="a" d="M1363.01,164.662l-8.369-10-8.369,10-8.369-10-8.369,10-8.359-10-8.369,10-8.369-10-8.369,10L1285.4,151.947l4.6-3.849,6.069,7.247,8.369-10,8.369,10,8.369-10,8.359,10,8.369-10,8.369,10,8.369-10,8.369,10,2.86-3.4V5a5,5,0,0,0-5-5h-3.25l2.44,8.487-13,1.34,3.6,12.536-13,1.34,3.6,12.526-13,1.34,3.61,12.526-13,1.33,3.6,12.536-16.538,1.7-.61-6,9.4-1-3.6-12.536,13-1.34-3.61-12.526,13-1.33-3.6-12.526,13-1.34-3.6-12.536,13-1.34L1351.381,0H1233.453l-1,5.488,13,.1-2.4,12.806,13,.11-2.4,12.806,13,.11-3.06,16.334-5.89-1.11,1.74-9.287-13-.1,2.4-12.816-13-.1,2.4-12.816-13-.1L1227.353,0h-57.995l6,5.748-9.429,8.1,9,8.627-9.429,8.1,9,8.627-9.429,8.1,9,8.627-9.429,8.107,9,8.627-12.149,10.256-3.92-4.548,6.929-6-8.939-8.637,9.419-8.1-8.939-8.637,9.419-8.1-9-8.627,9.429-8.1-9-8.617,9.429-8.1-5.7-5.5H5A5,5,0,0,0,0,5V199.93H1163.069l-4-9.567,11.849-3.739-4.819-11.456,11.849-3.739-4.86-11.486,11.849-3.739-4.829-11.446,11.849-3.739-4.829-11.446,15-4.728,1.8,5.718-8.709,2.749,4.829,11.446L1188.2,148.5l4.83,11.446-11.849,3.739,4.829,11.446-11.859,3.809,4.83,11.456-11.849,3.739,2.45,5.828h110.429l.51-5.8-13,1.15,1.15-13-13,1.15,1.16-13-13,1.15,1.16-13-13,1.16,1.47-16.554,6,.53-.83,9.417,13-1.16-1.16,13,13-1.15-1.15,13,13-1.15-1.15,13,13-1.15-1.1,12.406h6.489l6.449-.57v.57H1366V161.254ZM1064.039,19.183l5.939.88-1.39,9.347,13-.38-1.91,12.885,13-.39-1.78,12.9,13-.39-1.92,12.945,13-.38-1.91,12.885,13-.38-2.44,16.444-5.93-.88,1.38-9.357-13,.38,1.91-12.9-13,.39,1.91-12.9-13,.39,1.91-12.9-13,.39,1.92-12.885-13,.38Zm72.4,152.757-2.74-9.057-11.629,5.9-3.77-12.476-11.619,5.908-3.79-12.446-11.629,5.9-3.76-12.476L1075.9,149.1l-3.76-12.476-11.629,5.908-4.8-15.914,5.739-1.729,2.74,9,11.619-5.908,3.77,12.476,11.619-5.908,3.77,12.486,11.619-5.908,3.77,12.476,11.629-5.9,3.76,12.476,11.629-5.9,4.81,15.9Zm144.376-68.566-11.629,5.908-3.77-12.476-11.619,5.908-3.77-12.486-11.619,5.908-3.77-12.476-11.619,5.908-4.81-15.914,5.749-1.729,2.73,9,11.619-5.908,3.77,12.476,11.619-5.9,3.77,12.476,11.619-5.908,3.77,12.476,11.629-5.9,3.77,12.476,11.629-5.9,4.81,15.9-5.75,1.739-2.73-9.057-11.639,5.908Z" transform="translate(0 0.04)"/></g></g></svg>