<svg xmlns="http://www.w3.org/2000/svg" width="1366" height="200" viewBox="0 0 1366 200"><defs><style>.a{fill:#6c18a5;}</style></defs><path class="a" d="M1365.98,78l-20.26-3h0l.65-4.44,19.61,2.92V65.94l-18.52-2.72.65-4.44,17.87,2.62V5.47a5,5,0,0,0-5-5L5,0A5,5,0,0,0,0,5H0V194.53a5,5,0,0,0,5,5H5l1355.98.47a5,5,0,0,0,5-5h0V152.92l-28.54,9.93-1.48-4.24h0l30-10.43v-7.92l-32.479,11.29-1.48-4.24,34-11.8ZM1226.462,56.1l-14-39.45,4.23-1.5,14,39.45Zm11.27-4-14-39.43,4.23-1.5,14,39.43Zm16,35.28h0l-4.19-1.62,15.12-39h0l4.18,1.61Zm22.1-36.32h0l4.18,1.62-15.12,39h0l-4.19-1.62Zm-.32,128.76,28.06-31.1,3.33,3-28,31.1Zm12.23,11-3.33-3,28-31.08,3.34,3Zm21.7-71.35h0l-4.48-.13,1.25-41.84h0l4.48.14Zm12,.35-4.49-.14h0l1.26-41.81,4.49.13Zm-230-15.66-39.409-14.11,1.51-4.22,39.44,14.11Zm4-11.27-39.389-14.1,1.51-4.23,39.419,14.12Zm36.54-5.77h0l-3.9,2.22L1107.4,53h0l3.9-2.22ZM1117.814,47h0l3.91-2.22,20.65,36.39h0l-3.9,2.22Zm78.669,62.09-41.389,6.35-.69-4.44,41.4-6.35Zm-2.5-16.22.68,4.43-41.389,6.33-.69-4.43Zm27.109,81.77-33.18-25.51,2.74-3.56,33.18,25.51Zm7.29-9.48-33.16-25.51,2.73-3.56,33.17,25.51Zm-46.729.12h0l2.51,3.73-34.709,23.38h0l-2.51-3.72Zm-38.889,17.18h0l-2.51-3.72,34.7-23.37h0l2.51,3.72Zm-50.579-48.33h0l4.38-1,8.91,40.9h0l-4.38,1Zm-11.7,2.56,4.39-1h0l8.89,40.88-4.38.95ZM1249.072,107l16.18,38.64-4.14,1.74-16.13-38.66Zm-15.16,6.38,4.14-1.74,16.16,38.63-4.14,1.74Zm-67.219-65.57h0l-2.94,3.39-31.609-27.42h0l2.94-3.4Zm7.84-9-2.94,3.39h0l-31.609-27.48,3-3.39Zm151.678,2.83-35.14-22.8,2.45-3.76,35.139,22.8Zm6.52-10-35.14-22.89,2.44-3.75,35.15,22.79Z"/></svg>