<svg xmlns="http://www.w3.org/2000/svg" width="1366" height="412.938" viewBox="0 0 1366 412.938"><defs><style>.a{fill:#fff;}</style></defs><g transform="translate(1328.517 -2226.908)"><path class="a" d="M-1328.517,2226.907v69.419l65.054,35.621-12.381,7.122c-.171-5.184-5.57-10.422-13.165-12.323-8.6-2.156-18.1,2.007-18.1,2.007s7.661,15.242,16.265,17.4c4.189,1.049,7.453,1.253,9.876.525l-1.4,9.2a10.441,10.441,0,0,0-1.617-.554c-5.8-1.449-12.236,4.349-14.392,12.958s2.011,18.1,2.011,18.1,15.241-7.66,17.4-16.269c1.833-7.325,1.093-11.842-2.739-13.918l3.409-10.982a7.948,7.948,0,0,0,2.255-4.08,7.424,7.424,0,0,0,.175-1.028l7.049-3.289,3.631,4.92c-2.936,3.22-2.153,7.73,1.989,14.047,4.867,7.42,21.779,9.642,21.779,9.642s.809-10.338-4.054-17.754-12.855-10.782-17.849-7.508a10.448,10.448,0,0,0-1.348,1.057l-2.688-5.089,5.216-2.437c.131-.051.539-.229,1.042-.456l40.725,22.3a80.149,80.149,0,0,0,76.977,0l20.446-11.194,8.036,16.119c-5.989-.156-12.4,5.711-15.114,14.338-3.074,9.776,1.078,21.014,1.078,21.014s18.1-7.788,21.175-17.565c1.494-4.754,1.953-8.505,1.282-11.35l10.505,2.247a11.777,11.777,0,0,0-.747,1.828c-2.069,6.582,4.178,14.407,13.951,17.482s21.015-1.076,21.015-1.076-7.788-18.1-17.565-21.174c-8.323-2.62-13.58-2.073-16.235,2.2l-12.433-4.684a9.22,9.22,0,0,0-4.546-2.882,8.993,8.993,0,0,0-1.177-.272l-6.455-16.265c-.051-.16-.215-.6-.452-1.235l79.268-43.4a80.123,80.123,0,0,1,66.333-4.82l-.408,18.374-12.753,5.169a19.442,19.442,0,0,0-1.482-2.652c-6.247-9.329-22.552-9.365-36.42-.08s-20.039,27.786-20.039,27.786,30.926,8.55,44.791-.735c12.184-8.163,16.782-15.6,13.482-23.615l12.371-3.4-1.228,55.776c-6.863-4.079-18.137-1.428-26.9,6.833-9.933,9.366-12.422,25.127-12.422,25.127s26.111,2.725,36.045-6.641,12.079-16.65,5.777-23.335a11.482,11.482,0,0,0-1.188-1.081l3.082-23.11,10.833,2.972c-2.047,10.972,9.416,22.44,25.714,25.662,16.37,3.239,33.819-5.478,33.819-5.478s-15.824-27.91-32.194-31.149c-16.046-3.172-24.778-.3-27.167,10.2l-10.582-5.4,6.269-47.028c.412.219.834.408,1.243.634l102.024,55.864a79.961,79.961,0,0,0,21.911,8.076l-7.278,10.341c-2.357-4.662-9.515-7.147-17.256-5.657-8.771,1.691-15.67,9.526-15.67,9.526s13.467,10.658,22.238,8.972c4.269-.823,7.336-2.025,9.238-3.719l2.63,8.994a10.316,10.316,0,0,0-1.716.183c-5.9,1.137-9.318,9.171-7.628,17.94s9.525,15.675,9.525,15.675,10.662-13.471,8.969-22.243c-1.439-7.467-4.032-11.277-8.414-11.544l-1.556-11.474a7.981,7.981,0,0,0,.328-4.681,7.844,7.844,0,0,0-.277-1.012l9.093-10.837a80.122,80.122,0,0,0,52.84-8.538l56.719-31.057,9.526,17.882c-6.2,0-12.662,6.251-15.226,15.245-2.907,10.192,1.7,21.7,1.7,21.7s18.5-8.556,21.4-18.749c1.413-4.957,1.781-8.852,1.009-11.773l10.928,2.033a12.7,12.7,0,0,0-.725,1.912c-1.957,6.863,4.725,14.778,14.917,17.686s21.7-1.7,21.7-1.7-8.556-18.5-18.749-21.4c-8.68-2.476-14.1-1.766-16.731,2.732l-12.982-4.5a9.482,9.482,0,0,0-4.783-2.852,8.962,8.962,0,0,0-1.22-.248l-3.658-8.542,6.018-4.153c3.734,3.635,9.15,2.87,16.851-1.828,9.049-5.522,12.36-25.633,12.36-25.633s-.6-.062-1.6-.106l4.575-2.51a80.149,80.149,0,0,1,76.977,0l102.035,55.867a80.023,80.023,0,0,0,41.635,9.748l-3.664,16.123-13.529,2.513a19.5,19.5,0,0,0-.922-2.9c-4.258-10.392-20.224-13.689-35.665-7.365s-25.2,23.219-25.2,23.219,28.595,14.559,44.032,8.236c13.573-5.559,19.565-11.927,17.937-20.443l12.8-.857-12.36,54.4c-5.908-5.368-17.481-5.026-27.724,1.316-11.606,7.186-17.194,22.136-17.194,22.136s25.036,7.89,36.642.7,15.164-13.9,10.327-21.709a11.152,11.152,0,0,0-.944-1.3l7.639-22.026,10.021,5.081c-4.2,10.341,4.736,23.871,20.06,30.289,15.39,6.444,34.23,1.4,34.23,1.4s-9.919-30.514-25.309-36.962c-15.088-6.32-24.217-5.245-28.661,4.558l-9.281-7.409,17.383-50.126a80.142,80.142,0,0,0,24.723-8.63l83.133-45.518,5.074,12.833c-7-.791-15.091,5.435-19.135,15.255-4.583,11.129-.86,24.7-.86,24.7s21.969-7.289,26.552-18.417c2.229-5.416,3.144-9.759,2.644-13.153l12.072,3.69a13.832,13.832,0,0,0-1.06,2.065c-3.085,7.49,3.439,17.278,14.567,21.863s24.7.861,24.7.861-7.293-21.973-18.421-26.556c-9.478-3.9-15.685-3.8-19.226.944l-14.075-6.735a10.764,10.764,0,0,0-5.03-3.829,10.522,10.522,0,0,0-1.348-.438l-4.288-14.272,16.727-9.157a80.142,80.142,0,0,1,76.973,0l71.014,38.877-5.089,10.105-10.717-.638a15.3,15.3,0,0,0-.153-2.364c-1.271-8.666-12.746-14.163-25.626-12.272s-23.433,12.855-23.433,12.855,18.917,16.392,31.794,14.5c11.318-1.662,17.055-5.358,17.415-12.109l9.853,1.749-19.568,38.879c-3.464-5.177-12.294-7.089-21.24-4.208-10.137,3.263-17.175,13.531-17.175,13.531s17.477,10.678,27.611,7.411,14.094-7.68,11.9-14.5a9.29,9.29,0,0,0-.47-1.158l9.919-15.244,6.633,5.729c-5.122,7.042-.9,18.964,9.5,26.7,10.444,7.77,25.659,7.485,25.659,7.485s-1.785-24.966-12.228-32.737c-10.24-7.616-17.354-8.52-22.555-1.931l-5.639-7.354,20.089-30.876,24.566,13.449a80.022,80.022,0,0,0,18.916,7.416c1.672.486,7.941,1.6,9.383,1.77a80.127,80.127,0,0,0,34.449-3.168l2.666,18.5-8.506,4.753c-2.317-5.3-7.93-6.458-17.354-4.226-10.589,2.514-20.217,21.094-20.217,21.094s11.587,5.252,22.177,2.74,17.805-10.323,16.115-17.452c-.047-.2-.109-.379-.164-.572l8.575-2.7,6.273,36.523-13.037,7.285c-2.812-10.5-11.737-13.078-27.819-9.263-16.4,3.889-31.32,32.675-31.32,32.675s17.947,8.137,34.354,4.247c16.334-3.872,27.473-15.889,24.989-26.89l13.482-4.251.867,5.038c-4.178,6.4-1.355,13.139,8.068,21.375,10.331,9.031,36.452,5.308,36.452,5.308s-3.093-15.736-13.423-24.767-23.634-10.716-29.713-3.763c-.128.149-.229.3-.353.445l-3.457-57.918,12.622,2.965c-3.031,8.217,1.9,15.558,14.509,23.335,14.352,8.848,45.253-.959,45.253-.959s-6.939-18.446-21.291-27.3-30.813-8.193-36.769,1.468a19.713,19.713,0,0,0-1.4,2.732l-13.077-4.736-.867-8.521c2.229-.964,4.429-2.01,6.582-3.187l106.839-58.494v-70.144Zm611.152,100.556a12.527,12.527,0,0,0,1.209,1.651l-6.178,3.012-2.714-6.324c-.091-.27-.51-1.3-1.089-2.713l8.149-4.463C-719,2321.8-718.917,2324.921-717.365,2327.463Z" transform="translate(0 0)"/><path class="a" d="M13.077,2366.486a7.751,7.751,0,0,0,.32-1,8,8,0,0,0-.113-4.692l2.073-11.394c4.389-.066,7.154-3.752,8.932-11.147,2.087-8.687-7.949-22.627-7.949-22.627s-8.145,6.538-10.229,15.226.958,16.865,6.8,18.267a10.487,10.487,0,0,0,1.7.262l-3.034,8.864c-1.821-1.779-4.834-3.118-9.059-4.131-8.684-2.087-22.625,7.948-22.625,7.948s6.539,8.142,15.223,10.229c7.664,1.839,14.928-.316,17.5-4.866l3.1,4.859-85.078,46.578A80.111,80.111,0,0,1-134.8,2424l-1.541-15.974c7.275,3.013,17.9-1.169,25.284-10.469,8.371-10.542,8.571-26.278,8.571-26.278s-25.863,1.034-34.234,11.572c-4.072,5.129-6.4,9.515-6.917,13.318l-11.828-7.7a15.563,15.563,0,0,0,1.778-1.891c5.639-7.1,1.657-19.629-8.885-28S-188.847,2350-188.847,2350s1.031,25.867,11.573,34.238c8.976,7.129,15.682,8.936,20.953,4.939l13.037,11.6a12.075,12.075,0,0,0,4.226,5.669,11.259,11.259,0,0,0,1.308.888l.178,15.649a80.643,80.643,0,0,1-8.753-4.114l-102.057-55.874a80.108,80.108,0,0,0-75.006-.994l9.362-31.346c4.506,4.684,13.929,5.031,22.592.437,9.821-5.208,15.172-17.051,15.172-17.051s-19.911-7.77-29.732-2.561c-4.775,2.535-7.984,5.082-9.635,7.791l-6.4-9.74a13.764,13.764,0,0,0,1.974-.841c6.608-3.509,7.741-14.309,2.532-24.129s-17.048-15.173-17.048-15.173-7.77,19.911-2.561,29.731c4.437,8.361,8.91,11.945,14.221,10.662l6.032,13.089a9.977,9.977,0,0,0,1.318,5.686,9.2,9.2,0,0,0,.7,1.1l-7.4,17.482-7.868-4.674c3.978-8.175-2.55-19.649-14.647-25.7-12.156-6.072-27.735-2.994-27.735-2.994s6.4,25.327,18.556,31.4c11.911,5.952,19.39,5.578,23.528-2.141l7.14,6.524-6.786,16.024-97.307,53.281a80.181,80.181,0,0,1-18.894,7.414l-2.841-17.532c4.947,1.682,11.8-1.542,16.3-8.019,5.093-7.336,4.55-17.768,4.55-17.768s-17.084,1.792-22.177,9.132c-2.477,3.573-3.832,6.575-4.007,9.114l-8.167-4.593a10.489,10.489,0,0,0,1.1-1.33c3.428-4.939.255-13.07-7.085-18.162s-17.769-4.55-17.769-4.55,1.792,17.084,9.132,22.176c6.251,4.335,10.768,5.246,14.086,2.371l9.133,7.122a8,8,0,0,0,3.038,3.573,7.622,7.622,0,0,0,.907.533l1.155,15.211c0,.284.08,1.573.182,3.265a80.094,80.094,0,0,1-55.616-7.956L-604.919,2363.8l17.284-9.937c.211,6.393,6.87,12.854,16.235,15.2,10.611,2.659,22.323-2.476,22.323-2.476s-9.446-18.8-20.056-21.456c-5.162-1.289-9.191-1.541-12.178-.645l1.73-11.343a13.106,13.106,0,0,0,2,.685c7.144,1.789,15.084-5.365,17.744-15.98s-2.477-22.322-2.477-22.322-18.8,9.446-21.452,20.056c-2.262,9.038-1.351,14.607,3.377,17.168l-4.207,13.543a9.8,9.8,0,0,0-2.78,5.027,9.607,9.607,0,0,0-.215,1.268l-8.691,4.062-4.481-6.072c3.624-3.971,2.655-9.533-2.451-17.321-6-9.151-26.857-11.894-26.857-11.894s-1,12.75,5,21.9,15.853,13.295,22.013,9.256a13.351,13.351,0,0,0,1.661-1.3l3.315,6.271-6.433,3.005c-.325.128-1.741.758-3.628,1.61a80.121,80.121,0,0,0-75.221.889l-58.089,31.808-5.11-16.628,8.943-6.63c3.4,5.664,9.93,6.165,20.278,2.259,11.635-4.394,19.835-26.854,19.835-26.854s-13.893-4.258-25.528.131-18.672,14.3-15.714,22.126c.08.221.179.415.266.622l-9.318,4.317-12.436-40.466,13.708-10.159c4.717,11.492,15.2,13.106,32.872,6.44,18.024-6.8,30.725-41.6,30.725-41.6s-21.528-6.6-39.548.2c-17.944,6.772-28.814,22.012-24.391,34.113l-14.658,6.786-1.716-5.584c3.8-7.857-.382-15.084-12.261-23.039-13.023-8.724-42.076-.7-42.076-.7s5.8,17.38,18.825,26.1,28.34,8.691,34.211-.073c.124-.186.219-.367.336-.554l12.367,65.124-14.731-1.519c2.233-9.755-4.418-17.349-19.845-24.322-17.554-7.934-51.135,7.686-51.135,7.686s10.553,19.889,28.107,27.823,36.109,4.79,41.449-7.023a23.2,23.2,0,0,0,1.184-3.3l15.507,3.457,1.14,6.032-35.221,19.288a80.14,80.14,0,0,1-76.977,0l-73.807-40.411,20.636-11.865c.24,7.271,7.813,14.618,18.461,17.281,12.068,3.024,25.386-2.815,25.386-2.815s-10.742-21.373-22.807-24.4c-5.872-1.468-10.451-1.756-13.846-.736l1.967-12.9a14.477,14.477,0,0,0,2.269.779c8.123,2.033,17.153-6.1,20.177-18.169s-2.816-25.386-2.816-25.386-21.375,10.742-24.395,22.806c-2.572,10.276-1.534,16.612,3.839,19.522l-4.783,15.4a11.142,11.142,0,0,0-3.158,5.719,10.35,10.35,0,0,0-.252,1.439l-9.879,4.615-5.1-6.9c4.12-4.513,3.02-10.837-2.79-19.7-6.819-10.4-30.537-13.522-30.537-13.522s-1.136,14.5,5.686,24.9,18.024,15.117,25.025,10.523a14.216,14.216,0,0,0,1.891-1.479l3.77,7.132-7.314,3.421c-.427.168-2.5,1.093-5.151,2.292l-24.5-13.421a80.151,80.151,0,0,0-76.977,0l-37.458,20.512-5.329-19.164c7.686,1.7,17.419-4.269,23.069-14.713,6.408-11.842,3.865-27.371,3.865-27.371s-25.287,5.526-31.695,17.364c-3.118,5.76-4.644,10.48-4.491,14.316l-12.99-5.522a15.5,15.5,0,0,0,1.424-2.176c4.313-7.967-1.792-19.619-13.631-26.027s-27.364-3.861-27.364-3.861,5.519,25.291,17.361,31.695c10.079,5.457,17,6.069,21.492,1.214l14.862,9.146a12.031,12.031,0,0,0,5.144,4.849,12.279,12.279,0,0,0,1.443.648l4,21.156-61.733,33.8a80.149,80.149,0,0,1-76.976,0l-43.945-24.067,9.944-12.895,10.855,2.768a16.4,16.4,0,0,0-.31,2.456c-.408,9.135,10.262,17.033,23.834,17.637s26.559-8.539,26.559-8.539-16.148-20.537-29.721-21.143c-11.926-.536-18.537,2.121-20.238,8.969l-9.756-3.741,27.743-35.971c2.528,5.989,11.194,9.693,20.931,8.509,11.037-1.344,20.279-10.477,20.279-10.477s-15.8-14.392-26.836-13.052c-5.37.653-9.278,1.881-11.787,3.819l-2.488-11.391a13.106,13.106,0,0,0,2.146-.076c7.423-.9,12.356-10.583,11.016-21.616s-10.476-20.275-10.476-20.275-14.392,15.8-13.052,26.831c1.144,9.4,4.036,14.349,9.453,15.06l.939,14.378a9.933,9.933,0,0,0-.8,5.78,9.351,9.351,0,0,0,.251,1.282l-13.175,13.663-5.664-7.182c6.641-6.2,4.659-19.256-4.466-29.24-9.169-10.025-24.814-12.739-24.814-12.739s-3.107,25.939,6.061,35.964c8.987,9.832,16.1,12.16,22.734,6.437l4.327,8.652-30.922,32.059-56.745-31.069v167.942h1366V2360.374l-20.5,11.223Z" transform="translate(0 112.251)"/><path class="a" d="M-1081.405,2252.864c-1.027-.572-1.963-1.118-2.867-1.632l-14.28,18.96c-2.608-5.6-10.964-8.8-20.158-7.336-10.418,1.66-18.865,10.65-18.865,10.65s15.5,13.1,25.918,11.435c5.07-.809,8.735-2.11,11.048-4.037l2.757,10.717a12.085,12.085,0,0,0-2.029.153c-7.015,1.114-11.35,10.472-9.693,20.89s10.651,18.87,10.651,18.87,13.1-15.5,11.438-25.917c-1.414-8.874-4.335-13.47-9.5-13.951l-1.395-13.609a9.489,9.489,0,0,0,.561-5.511,9.6,9.6,0,0,0-.288-1.209l12.021-13.424C-1085.729,2257.566-1083.726,2255.392-1081.405,2252.864Z" transform="translate(504.596 64.28)"/></g></svg>