<svg xmlns="http://www.w3.org/2000/svg" width="1366" height="200" viewBox="0 0 1366 200"><defs><style>.a{fill:#ab1dbe;}</style></defs><path class="a" d="M1316.12,171.38,1366,149.19V131.43L1212.2,200h39.84l43.5-19.39,1.63,3.65L1261.86,200h48.13L1366,175.03V153.57l-48.25,21.46Z"/><path class="a" d="M1212.02,200l-1.6-3.59L1366,127.05V101.9L1145.97,200Z"/><path class="a" d="M1366,97.52V76.06l-123.92,55.25-1.63-3.65,125.55-56V50.23l-35.22,15.7-1.62-3.66L1366,45.85V24.39L1075,154.13l-1.63-3.66L1366,20V3.24A3.24,3.24,0,0,0,1362.76,0h0L1143.23,97.88l-1.63-3.65L1352.94,0h-48.12L1203.47,45.19l-1.63-3.66L1295,0h-48.12L1079.3,74.72l-1.63-3.66L1237.05,0h-48.12l-35.28,15.73L1152,12.07,1179.11,0H5A5,5,0,0,0,0,5V195a5,5,0,0,0,5,5H1136.15ZM1184.41,49.31,1186,53l-70.19,31.3-1.63-3.66Zm-63.81,54.28,1.63,3.65-41.42,18.47-1.63-3.65Zm7.81-81,1.63,3.65L1090.47,43.9l-1.63-3.65Zm177.66,50,1.63,3.65-169.18,75.44-1.63-3.65Zm-86.68,64.49,1.62,3.66L1115,188l-1.63-3.65Z"/><path class="a" d="M1319.81,200H1361a5,5,0,0,0,5-5V179.4Z"/></svg>