<svg xmlns="http://www.w3.org/2000/svg" width="1366" height="200" viewBox="0 0 1366 200"><defs><style>.a{fill:#4d1598;}</style></defs><rect class="a" width="7.49" height="8.94" transform="translate(1358.51 80.94)"/><rect class="a" width="14" height="14" transform="translate(1230.87 18.75)"/><rect class="a" width="19.63" height="19.63" transform="translate(1245.27 131.56)"/><rect class="a" width="14.09" height="19.63" transform="translate(1351.91 167.36)"/><path class="a" d="M1348.41,190V164.34H1366v-72h-10.26V78.51H1366V17.91h-3.59V10.76H1366V0H0V195a5,5,0,0,0,5,5H1361a5,5,0,0,0,5-5v-5ZM1255.08,89.14h10.16V99.3h-10.16ZM1228.16,16h19.41V35.45h-19.41Zm39.76,138.17h-25.68V128.54h25.67Zm16.95,30h-14.06V170.15h14.06Zm13.06-110.86h-23.75V49.61h23.74Zm19.34,95.79h-17.48V151.66h17.48Zm0-44.14h-17.48V107.52h17.48ZM1158.12,176.2V156.61h19.63v19.63Zm-42.42-9.81V156.27h10.16v10.16Zm65.07-12.84v25.68H1155.1V153.6Zm30-17V150.7h-14.06V136.64Zm-15.06-32.4v17.48h-17.49V104.24Zm-44.14,0v17.48h-17.49V104.24Zm-65.51-5.39v-14h14v14Zm112.81-14.4V64.82h19.63V84.45Zm-42.43-9.82V64.47h10.16V74.63Zm-73.1,26.93V82.14h19.42v19.42ZM1221.51,61.8V87.47h-25.67V61.8Zm-80.85-30V55.53h-23.75V31.79Zm51.65-19.35V29.93h-17.48V12.44ZM1323.4,29.22h-14.87V14.34h14.88Zm5.19,16.52h15.74V61.48h-15.74Zm21.42,58.2v7.16h-7.15v-7.16Zm-9.84,31.5H1352V147.3h-11.87Z"/></svg>