<svg xmlns="http://www.w3.org/2000/svg" width="1366" height="230" viewBox="0 0 1366 230"><defs><style>.a{fill:#8c1bb2;}</style></defs><path class="a" d="M34.6,1711.462h-1366v53.3l59.6,32.521-3.067,4.055c-2.2-4.71-9.264-7.413-17.032-6.178-8.8,1.4-13.375,12.034-13.375,12.034s10.528,7.962,19.333,6.564c4.284-.683,7.383-1.776,9.335-3.4l2.333,9.024a10.05,10.05,0,0,0-1.719.123c-5.925.941-9.588,8.818-8.187,17.59s9,15.888,9,15.888,11.067-13.05,9.663-21.822c-1.193-7.474-3.66-11.341-8.021-11.745l-1.183-11.457a7.922,7.922,0,0,0,.477-4.642,7.467,7.467,0,0,0-.244-1.015l3.911-4.356,64.831,35.378-.819,4.54-10.559,2.452a15.593,15.593,0,0,0-.83-2.236c-3.723-8-16.411-10.014-28.339-4.5s-19,19.115-19,19.115,23.032,10.4,34.957,4.883c10.481-4.844,14.975-10.057,13.379-16.673l10.047-1.132-7.778,43.115c-4.842-4-13.94-3.319-21.775,2.024-8.876,6.054-12.74,17.979-12.74,17.979s19.992,5.294,28.868-.761c4.32-2.944,7.129-5.732,8.425-8.506l7.213,8.644a12.325,12.325,0,0,0-1.807,1.019c-5.975,4.073-5.894,14.547.183,23.4s18.038,12.7,18.038,12.7,5.312-19.921-.758-28.767c-5.174-7.533-9.868-10.484-14.837-8.683l-7.221-11.889a9.578,9.578,0,0,0-1.885-5.307,9.312,9.312,0,0,0-.791-.984l5.223-17.551,8.068,3.63c-2.936,8.258,4.588,18.552,16.876,23.039,12.349,4.5,27-.131,27-.131s-8.9-23.577-21.253-28.084c-12.1-4.416-19.248-3.248-22.393,4.6l-7.577-5.481,8.106-27.239a77.771,77.771,0,0,0,72.493-1.012l22.3-12.172,2.937,7.1-5.28,4.716c-2.491-3.379-6.667-3.308-13-.23-7.118,3.464-10.99,18.149-10.99,18.149s9.067,1.872,16.185-1.593,11-10.141,8.657-14.914c-.064-.135-.138-.251-.2-.378l5.653-3.277,10.288,24.847-8.092,7.229c-3.674-6.985-10.421-7.388-21.235-2.13-11.029,5.368-17.025,28.113-17.025,28.113s14.046,2.9,25.079-2.466c10.979-5.339,16.972-15.615,13.449-23l8.9-5.156,1.416,3.429c-1.944,5.19,1.14,9.515,9.144,13.842,8.78,4.745,26.737-2.045,26.737-2.045s-4.711-10.647-13.488-15.393-18.5-3.821-21.7,2.067c-.067.124-.117.248-.18.372l-11.7-40.437,9.434.088c-.84,6.3,3.833,10.707,14.032,14.2,11.6,3.977,31.981-7.88,31.981-7.88s-7.873-11.949-19.478-15.926-23.19-.895-25.88,6.889a14.388,14.388,0,0,0-.554,2.155l-9.815-1.241,71.173-38.835a77.787,77.787,0,0,1,64.2-4.646l-.392,17.717-12.342,4.986a19.075,19.075,0,0,0-1.437-2.555c-6.045-9-21.824-9.034-35.242-.082s-19.4,26.8-19.4,26.8,29.932,8.245,43.35-.711c11.791-7.87,16.241-15.046,13.047-22.774l11.968-3.283-1.186,53.795c-6.642-3.938-17.551-1.38-26.035,6.589-9.614,9.03-12.021,24.235-12.021,24.235s25.269,2.626,34.882-6.408,11.688-16.058,5.59-22.5a11.319,11.319,0,0,0-1.147-1.044l2.982-22.285,10.481,2.866c-1.98,10.584,9.112,21.641,24.888,24.751,15.839,3.121,32.73-5.286,32.73-5.286s-15.317-26.917-31.16-30.037c-15.528-3.061-23.977-.287-26.289,9.833l-10.242-5.212,6.063-45.348c.4.209.812.389,1.207.609l98.736,53.873c.7.382,1.408.711,2.114,1.069l-8.979,27.373c-4.362-4.519-13.481-4.855-21.867-.425-9.5,5.025-14.682,16.443-14.682,16.443s19.269,7.494,28.77,2.47c4.626-2.445,7.732-4.9,9.328-7.512l6.2,9.394a12.594,12.594,0,0,0-1.909.81c-6.4,3.383-7.493,13.8-2.453,23.269s16.5,14.635,16.5,14.635,7.521-19.2,2.478-28.676c-4.292-8.06-8.622-11.517-13.76-10.283l-5.841-12.621a9.559,9.559,0,0,0-1.274-5.484,8.913,8.913,0,0,0-.678-1.065l7.164-16.857,7.613,4.508c-3.847,7.88,2.471,18.948,14.18,24.78,11.76,5.856,26.84,2.887,26.84,2.887s-6.2-24.426-17.96-30.282c-11.526-5.743-18.761-5.379-22.771,2.066l-6.91-6.291,3.339-7.537a77.8,77.8,0,0,0,59.7,1.641c-6.522,7.873-10.658,19.111-10.658,19.111s13.446,4.108,24.7-.127,18.069-13.786,15.21-21.337c-.081-.213-.176-.4-.261-.6l9.021-4.162,12.031,39.025-13.262,9.795c-4.567-11.079-14.717-12.64-31.816-6.206-17.438,6.56-29.733,40.112-29.733,40.112s20.833,6.369,38.278-.191c17.36-6.532,27.881-21.227,23.6-32.9l14.188-6.546,1.659,5.386c-3.681,7.579.371,14.55,11.865,22.222,12.6,8.414,40.72.672,40.72.672s-5.612-16.761-18.218-25.176-27.429-8.383-33.111.07c-.12.181-.212.354-.321.535l-11.791-61.863,1.426-.778,12.652,1.3c-2.163,9.409,4.277,16.73,19.206,23.456,16.986,7.65,49.49-7.413,49.49-7.413s-10.217-19.182-27.2-26.836-34.947-4.618-40.116,6.776a22.274,22.274,0,0,0-1.144,3.185l-9.765-2.173,61.443-33.527a77.774,77.774,0,0,1,68.121-3.068l-19.128,15.8c-1.271-6.14-8.8-11.274-18.267-11.985-10.725-.8-21.221,6.1-21.221,6.1s12.285,16.581,23.014,17.388c5.216.393,9.162-.035,11.907-1.394l.212,11.238a12.406,12.406,0,0,0-2.051-.326c-7.221-.545-13.725,7.686-14.533,18.372s6.12,21.149,6.12,21.149,16.64-12.239,17.448-22.932c.688-9.1-1.126-14.328-6.13-16.015l1.818-13.779a9.553,9.553,0,0,0,1.856-5.318,8.753,8.753,0,0,0,0-1.26l15.087-10.445,4.023,7.859c-7.475,4.617-8.061,17.338-1.278,28.495,6.812,11.21,21.151,16.716,21.151,16.716s7.842-23.952,1.031-35.158c-6.677-10.987-12.991-14.529-20.367-10.361l-2.474-8.995,5.269-3.535c.963.478,1.934.941,2.887,1.458l76.958,41.991-19.185,11.9c-.367-5.364-6.169-10.591-14.127-12.282-9.021-1.922-18.737,2.735-18.737,2.735s8.512,15.5,17.533,17.423c4.387.931,7.786,1.023,10.277.184l-1.122,9.575a10.384,10.384,0,0,0-1.7-.516c-6.071-1.292-12.553,4.95-14.477,13.938s2.745,18.669,2.745,18.669,15.557-8.485,17.48-17.473c1.641-7.653.706-12.3-3.353-14.309l3.145-11.5a8.246,8.246,0,0,0,2.195-4.3,7.837,7.837,0,0,0,.145-1.072l14.025-7.137c.537-.234,4.606-2.24,8.354-4.094l18.592,10.145a77.7,77.7,0,0,0,40.293,9.4l-3.543,15.544-13.1,2.424a18.481,18.481,0,0,0-.889-2.792c-4.119-10.021-19.573-13.2-34.516-7.1s-24.384,22.391-24.384,22.391,27.669,14.044,42.612,7.944c13.135-5.361,18.934-11.5,17.356-19.713l12.387-.828-11.961,52.468c-5.721-5.18-16.919-4.851-26.833,1.266-11.233,6.932-16.64,21.348-16.64,21.348s24.228,7.611,35.461.679,14.678-13.407,9.995-20.937a10.42,10.42,0,0,0-.914-1.252l7.394-21.242,9.7,4.9c-4.069,9.971,4.585,23.021,19.414,29.21,14.894,6.214,33.129,1.348,33.129,1.348s-9.6-29.429-24.5-35.646c-14.6-6.094-23.437-5.056-27.736,4.394l-8.985-7.147,16.823-48.339a77.625,77.625,0,0,0,23.925-8.323l29.225-15.947,6.974,4.678-2.474,8.995c-7.376-4.165-13.69-.627-20.367,10.361-6.812,11.209,1.027,35.157,1.027,35.157s14.343-5.505,21.154-16.712c6.783-11.161,6.2-23.877-1.277-28.5l4.023-7.855,15.087,10.445a8.747,8.747,0,0,0,0,1.26,9.589,9.589,0,0,0,1.856,5.319l1.821,13.778c-5.008,1.688-6.822,6.915-6.134,16.015.808,10.69,17.452,22.933,17.452,22.933s6.925-10.46,6.116-21.149-7.312-18.916-14.533-18.375a12.827,12.827,0,0,0-2.051.329l.215-11.242c2.746,1.362,6.688,1.787,11.907,1.4,10.725-.807,23.01-17.392,23.01-17.392s-10.5-6.9-21.221-6.1c-9.465.712-17,5.842-18.267,11.981l-20.85-17.222,66.049-36.039a77.751,77.751,0,0,1,35.3-9.437l-8.442,25.743c-3.885-4.023-12.01-4.324-19.481-.375-8.467,4.476-13.083,14.652-13.083,14.652s17.169,6.674,25.636,2.2c4.122-2.18,6.889-4.37,8.308-6.695l5.523,8.368a11.137,11.137,0,0,0-1.7.726c-5.7,3.011-6.674,12.292-2.185,20.731s14.7,13.039,14.7,13.039,6.7-17.112,2.209-25.547c-3.825-7.187-7.683-10.265-12.26-9.165l-5.2-11.249a8.523,8.523,0,0,0-1.14-4.886,8.049,8.049,0,0,0-.6-.949l6.381-15.02,6.787,4.016c-3.431,7.024,2.195,16.886,12.631,22.08,10.482,5.22,23.914,2.573,23.914,2.573s-5.52-21.761-16-26.98c-10.274-5.117-16.718-4.791-20.29,1.843l-6.155-5.608,4.206-9.5a77.682,77.682,0,0,1,35.441,9.441l63.882,34.85-9.292,2.067a16.869,16.869,0,0,0-.868-2.41c-3.907-8.616-17.494-10.913-30.344-5.124s-20.579,20.3-20.579,20.3,24.588,11.4,37.438,5.608c11.294-5.084,16.164-10.625,14.53-17.741l10.785-1.112-9.056,47.511c-.084-.134-.152-.269-.243-.4-4.3-6.394-15.514-6.419-25.047-.053s-13.781,19.044-13.781,19.044,21.27,5.856,30.8-.51c8.7-5.8,11.759-11.075,8.975-16.807l1.256-4.073,10.732,4.95c-3.236,8.828,4.722,19.946,17.854,24.886,13.2,4.965,28.957.148,28.957.148s-9.3-25.385-22.5-30.345c-12.931-4.865-20.61-3.687-24.065,4.7l-10.034-7.409,9.1-29.521,6.825,3.145c-.067.152-.137.294-.2.456-2.163,5.711,2.986,12.94,11.505,16.143s18.691.1,18.691.1-3.79-10.3-9.606-16.164l3.046,1.663a77.612,77.612,0,0,0,18.309,7.151c1.62.471,7.683,1.543,9.081,1.709a77.811,77.811,0,0,0,33.337-3.057l2.583,17.844-8.23,4.586c-2.244-5.11-7.679-6.231-16.8-4.077-10.252,2.424-19.57,20.343-19.57,20.343s11.216,5.067,21.465,2.647,17.229-9.961,15.6-16.833c-.046-.194-.106-.368-.159-.552l8.3-2.607,6.07,35.221-12.613,7.024c-2.721-10.127-11.361-12.611-26.924-8.931-15.874,3.75-30.312,31.509-30.312,31.509s17.371,7.849,33.249,4.1c15.807-3.737,26.589-15.322,24.182-25.933l13.051-4.1.836,4.862c-4.045,6.167-1.309,12.671,7.81,20.611,9.995,8.708,35.274,5.12,35.274,5.12s-2.993-15.176-12.991-23.888-22.869-10.333-28.753-3.627c-.127.145-.222.286-.342.428l-3.345-55.854,12.214,2.859c-2.933,7.926,1.835,15,14.043,22.5,13.887,8.535,43.794-.92,43.794-.92s-6.716-17.792-20.6-26.327-29.822-7.9-35.585,1.412a19.125,19.125,0,0,0-1.352,2.639l-12.656-4.568-.84-8.216c2.156-.934,4.288-1.939,6.37-3.075l63.748-34.783,6.3,7.01a7.47,7.47,0,0,0-.244,1.016,7.948,7.948,0,0,0,.476,4.642l-1.182,11.458c-4.362.4-6.825,4.274-8.022,11.744-1.4,8.772,9.663,21.822,9.663,21.822s7.595-7.112,9-15.884-2.262-16.652-8.191-17.593a10.393,10.393,0,0,0-1.712-.124l2.329-9.023c1.955,1.621,5.054,2.718,9.335,3.4,8.805,1.4,19.75-6.408,19.75-6.408s-4.99-10.788-13.792-12.19c-7.768-1.232-14.826,1.468-17.032,6.178l-5.181-6.857L34.6,1768.749Zm-796.55,123.753c-2.054-3.408-5.287-4.876-9.861-4.583l16.327-8.909,2.188,7.1Zm576.865-3.135-6.547-4.837,2.043-6.624,16.026,8.744C-179.229,1827.816-182.987,1828.591-185.087,1832.08Z" transform="translate(34.598 1941.462) rotate(180)"/></svg>