<svg xmlns="http://www.w3.org/2000/svg" width="1366.01" height="200" viewBox="0 0 1366.01 200"><defs><style>.a{fill:#8c1bb2;}</style></defs><path class="a" d="M1257.26,167.51l-14.54-14.03-4.88,19.61Z"/><path class="a" d="M1148.65,59.13l-13.88,14.68,19.65,4.68Z"/><path class="a" d="M1340.49.06h-16.64l6.24,14.18Z"/><path class="a" d="M1213.04,75.03l3.42-19.9-18.95,6.98Z"/><path class="a" d="M1350.36,178.44l-15.54-12.92-3.42,19.91Z"/><path class="a" d="M1353.08,139.71,1366,131.8V67.14l-19.7,1,11.82-23.06,7.89,12.2V5.05a5,5,0,0,0-5-5h-17.38l-14.4,19.65L1320.57.05,5,0A5,5,0,0,0,0,5V195a5,5,0,0,0,5,5H1361a5,5,0,0,0,5-5V146.72ZM1269.51,24.85l-20.77,15.48-3-25.72Zm-107.09-16,8.68,24.41-25.48-4.7Zm-34,151.18-.85-25.89,22.85,12.2ZM1150,54.22l8.4,28.15-28.58-6.81Zm19.57,121,21.85-13.92,1.13,25.88Zm64.4,1.74,7.1-28.5,21.14,20.39Zm-18.84-97.1L1192.51,61.1,1220.08,51ZM1192.51,131V105.1L1215,118ZM1082.24,88.74l22.34-13.11.18,25.91ZM1266.1,114.5,1255.66,87l29,4.7Zm30.39,48.24L1286.05,139l25.76,2.81ZM1290.65,52.3,1311.59,37l2.75,25.76Zm39.28,41.22L1344,115.28l-25.88,1.3Zm-2.14,96.09,5-28.94,22.59,18.77Z"/><path class="a" d="M1267.05,109.5l12.77-15.65-19.95-3.23Z"/><path class="a" d="M1365.99,134.38l-8.46,5.19,8.46,4.6Z"/></svg>